<?xml version="1.0" standalone="no"?><!DOCTYPE svg PUBLIC "-//W3C//DTD SVG 1.1//EN" "http://www.w3.org/Graphics/SVG/1.1/DTD/svg11.dtd"><svg t="1762219910026" class="icon" viewBox="0 0 1152 1024" version="1.1" xmlns="http://www.w3.org/2000/svg" p-id="7428" xmlns:xlink="http://www.w3.org/1999/xlink" width="225" height="200"><path d="M41.6813 68c33-12.4 70 4.4 82.4 37.4l220.4 588L514.6813 110c8-27.4 33-46 61.4-46s53.4 18.8 61.4 46l170.2 583.4L1028.0813 105.6c12.4-33 49.2-49.8 82.4-37.4s49.8 49.4 37.4 82.4l-288 768c-9.6 25.8-34.8 42.6-62.4 41.4s-51.4-19.6-59-46L576.0813 356.6 413.4813 914c-7.8 26.4-31.6 45-59 46s-52.6-15.6-62.4-41.4L4.0813 150.4c-12.4-33 4.4-70 37.6-82.4z" p-id="7429" fill="#1296db"></path></svg>